<?xml version="1.0" encoding="UTF-8"?>
<svg id="_レイヤー_3" data-name="レイヤー 3" xmlns="http://www.w3.org/2000/svg" viewBox="0 0 363.96 490.83">
  <defs>
    <style>
      .cls-1 {
        fill: #7a8d72;
      }
    </style>
  </defs>
  <path class="cls-1" d="M180.31,59.47c-74.17,0-134.29,60.13-134.29,134.29,0,82.64,134.29,237.6,134.29,237.6,0,0,134.29-154.96,134.29-237.6,0-74.17-60.13-134.29-134.29-134.29ZM56.34,193.76c0-68.35,55.61-123.96,123.96-123.96s123.96,55.61,123.96,123.96-95.63,187.27-123.96,221.54c-28.33-34.27-123.96-154.89-123.96-221.54ZM180.31,100.79c-51.34,0-92.97,41.63-92.97,92.97,0,38.64,23.66,71.8,57.23,85.74,4.65,2.07,9.61,3.62,14.67,4.85,6.82,1.55,13.84,2.38,21.07,2.38,6.82,0,13.53-.72,19.94-2.17,1.76-.41,3.51-.83,5.17-1.34,3.31-.93,6.61-1.96,9.71-3.31,1.65-.62,3.31-1.34,4.96-2.17,31.4-14.88,53.2-46.9,53.2-83.99,0-51.34-41.63-92.97-92.97-92.97ZM152.32,211.72c-6.43-3.18-13.35-14.01-13.35-30.25,0-18.04,10.78-31.61,17.77-31.61,6.12,0,17.87,13.35,17.87,31.61,0,13.67-5.44,26.11-13.24,30.24-1.32.7-2.41,1.77-3.14,3.08-.49.88-.93,1.72-1.33,2.52-.38-.79-.79-1.56-1.19-2.31-.76-1.42-1.95-2.57-3.39-3.28ZM212.89,218.76c-2.58-3.67-6.18-5.91-7.24-6.51l-.34-.19-.36-.16c-.25-.11-.45-.35-.62-.67h16.65c-.26.48-.56.86-.84,1.03-1.06.61-4.68,2.86-7.26,6.51ZM219.58,266.18l-1.67-39.05c-.21-4.55,6.09-8.16,6.09-8.16,3.82-2.27,5.99-7.64,5.27-11.98l-4.24-60.02h-1.76v56.51h-2.17l-3.72-56.51h-1.86l-1.96,56.51h-1.55l-2.07-56.51h-1.45l-3.62,56.51h-2.17v-56.51h-1.76l-4.75,60.02c-.52,4.24.72,9.81,5.58,11.98,0,0,6.3,3.62,6.09,8.26l-1.99,45.06c-1.22.38-2.44.75-3.57,1.07-1.42.44-2.94.79-4.36,1.13-5.63,1.27-11.57,1.92-17.66,1.92-5.53,0-11.07-.65-16.43-1.71l-1.98-47.56c-.1-2.38,1.55-5.79,3.1-8.57,10.12-5.37,17.35-19.83,17.35-37.09,0-21.8-14.26-39.36-25.62-39.36-12.09,0-25.52,17.56-25.52,39.36,0,17.46,7.44,32.13,17.66,37.19,1.55,2.89,3.1,6.2,3,8.57l-1.88,43.3c-.48-.2-1-.36-1.47-.57-30.9-12.83-50.86-42.75-50.86-76.2,0-45.57,37.07-82.64,82.64-82.64s82.64,37.07,82.64,82.64c0,30.16-16.88,57.95-43.37,72.42Z"/>
</svg>