<?xml version="1.0" encoding="UTF-8"?>
<svg id="_レイヤー_3" data-name="レイヤー 3" xmlns="http://www.w3.org/2000/svg" viewBox="0 0 490.83 490.83">
  <defs>
    <style>
      .cls-1 {
        fill: #7a8d72;
      }
    </style>
  </defs>
  <path class="cls-1" d="M245.42,123.29c-54.51,0-98.7,44.19-98.7,98.7,0,60.74,98.7,174.62,98.7,174.62,0,0,98.7-113.89,98.7-174.62,0-54.51-44.19-98.7-98.7-98.7ZM154.31,221.99c0-50.24,40.87-91.11,91.11-91.11s91.11,40.87,91.11,91.11-70.29,137.64-91.11,162.82c-20.82-25.19-91.11-113.84-91.11-162.82ZM245.42,153.65c-37.73,0-68.33,30.6-68.33,68.33,0,28.4,17.39,52.77,42.06,63.02,3.42,1.52,7.06,2.66,10.78,3.57,5.01,1.14,10.17,1.75,15.49,1.75,5.01,0,9.95-.53,14.65-1.59,1.29-.3,2.58-.61,3.8-.99,2.43-.68,4.86-1.44,7.14-2.43,1.21-.46,2.43-.99,3.64-1.59,23.08-10.93,39.1-34.47,39.1-61.73,0-37.73-30.6-68.33-68.33-68.33ZM224.85,235.18c-4.73-2.34-9.81-10.29-9.81-22.23,0-13.26,7.92-23.23,13.06-23.23,4.5,0,13.14,9.81,13.14,23.23,0,10.05-4,19.19-9.73,22.23-.97.52-1.77,1.3-2.31,2.26-.36.65-.68,1.26-.98,1.85-.28-.58-.58-1.15-.87-1.7-.56-1.04-1.43-1.89-2.49-2.41ZM269.36,240.36c-1.89-2.69-4.54-4.34-5.32-4.79l-.25-.14-.26-.12c-.18-.08-.33-.25-.45-.5h12.24c-.19.35-.41.63-.62.76-.78.45-3.44,2.1-5.34,4.79ZM274.28,275.21l-1.23-28.7c-.15-3.34,4.48-6,4.48-6,2.81-1.67,4.4-5.62,3.87-8.81l-3.11-44.11h-1.29v41.53h-1.59l-2.73-41.53h-1.37l-1.44,41.53h-1.14l-1.52-41.53h-1.06l-2.66,41.53h-1.59v-41.53h-1.29l-3.49,44.11c-.38,3.11.53,7.21,4.1,8.81,0,0,4.63,2.66,4.48,6.07l-1.47,33.12c-.89.28-1.79.55-2.62.79-1.05.33-2.16.58-3.2.83-4.14.93-8.5,1.41-12.98,1.41-4.07,0-8.13-.47-12.08-1.26l-1.45-34.96c-.08-1.75,1.14-4.25,2.28-6.3,7.44-3.95,12.76-14.58,12.76-27.26,0-16.02-10.48-28.93-18.83-28.93-8.88,0-18.75,12.91-18.75,28.93,0,12.83,5.47,23.61,12.98,27.33,1.14,2.13,2.28,4.56,2.2,6.3l-1.38,31.82c-.35-.15-.74-.26-1.08-.42-22.71-9.43-37.38-31.42-37.38-56,0-33.49,27.25-60.74,60.74-60.74s60.74,27.25,60.74,60.74c0,22.16-12.41,42.59-31.87,53.22Z"/>
</svg>