<?xml version="1.0" encoding="UTF-8"?>
<svg id="Glyph" xmlns="http://www.w3.org/2000/svg" viewBox="0 0 288.01 488.01">
  <defs>
    <style>
      .cls-1 {
        fill: #fff;
      }
    </style>
  </defs>
  <path class="cls-1" d="M231.57,165.82c.96-4.91,1.7-9.9,2.24-14.89-4.32-2.84-8.64-5.38-12.94-7.67,1.1,2.16,2.16,4.34,3.17,6.53,2.67,5.82,5.05,11.81,7.14,17.9.13-.62.27-1.25.39-1.88h0Z"/>
  <path class="cls-1" d="M126.76,292.14v9.86h.88c1.28,0,2.48.61,3.24,1.65l5.49,7.56,4.16-7.21c.71-1.24,2.04-2,3.46-2h17.49v-9.86c-5.58,1.43-11.39,2.26-17.36,2.26s-11.78-.83-17.37-2.26h0Z"/>
  <path class="cls-1" d="M46.47,214.08c2.69,7.38,8.33,12.74,14.45,14.25-3.32-11.26-5.96-24.94-7.68-40.09-7.51,4.34-10.56,15.43-6.78,25.84h0Z"/>
  <path class="cls-1" d="M63.96,149.79c1-2.18,2.06-4.33,3.14-6.48-5.02,2.66-9.34,5.27-12.92,7.61.53,4.99,1.28,9.99,2.24,14.9.12.63.26,1.25.39,1.88,2.09-6.09,4.47-12.08,7.14-17.9h0Z"/>
  <path class="cls-1" d="M38.31,107.7c-.22-2.73-.4-5.46-.52-8.19-.1-2.21,1.61-4.08,3.82-4.17,2.24-.08,4.08,1.61,4.17,3.82.48,10.89,1.83,21.81,4.01,32.44.75,3.67,1.61,7.35,2.57,11,5.83-3.66,13.25-7.8,22.06-11.71.4-.27.85-.47,1.32-.58,17.74-7.69,40.94-14.3,68.27-14.3,14.87,0,40.61,2.21,68.72,14.45.18.07.36.14.53.23,7.36,3.23,14.87,7.15,22.4,11.9.96-3.64,1.81-7.32,2.57-10.99,2.18-10.63,3.53-21.55,4.01-32.44.1-2.21,1.97-3.9,4.17-3.82,2.21.1,3.92,1.97,3.82,4.17-.12,2.73-.3,5.46-.52,8.19,8.47-.78,18.72-3.5,26.41-11.19,8.77-8.79,13.11-23.29,11.6-38.79-1.71-17.56-10.41-33.21-23.27-41.86-16.85-11.33-40.54-10.77-60.3,1.04,2.95,2.92,5.8,6.16,8.51,9.8,1.32,1.77.95,4.28-.83,5.6-1.77,1.32-4.28.95-5.6-.83C183.53.88,147.98,0,144,0c-37.79,0-59.82,28.23-62.21,31.45-.79,1.06-1.99,1.62-3.21,1.62-.83,0-1.66-.26-2.38-.79-1.77-1.32-2.15-3.82-.83-5.6,1.26-1.69,4.17-5.36,8.66-9.71-19.8-11.9-43.57-12.48-60.46-1.12C10.7,24.5,2,40.15.3,57.71c-1.51,15.5,2.83,30.01,11.6,38.8,7.69,7.7,17.94,10.42,26.41,11.19ZM72.69,108.16c22.03-11.1,46.69-16.96,71.31-16.96s49.28,5.86,71.31,16.96c1.97.99,2.77,3.4,1.77,5.37-.99,1.97-3.4,2.77-5.37,1.77-20.92-10.54-44.34-16.11-67.71-16.11s-46.79,5.57-67.71,16.11c-.58.29-1.19.43-1.8.43-1.46,0-2.87-.81-3.58-2.2-.99-1.97-.2-4.38,1.77-5.37h.01Z"/>
  <path class="cls-1" d="M164.39,211.56c-3.03-2.65-5.22-4.57-8.53-4.91-2.16-.23-4.49.35-6.94,1.72,3.75,8.1,11.38,13.91,20.17,15.14,5.44.76,10.86-.24,15.58-2.71-3.35-.15-6.51-.83-9.45-2.02-4.78-1.93-7.99-4.74-10.82-7.22h0Z"/>
  <path class="cls-1" d="M132.14,206.65c-3.31.34-5.5,2.26-8.53,4.91-2.83,2.48-6.04,5.29-10.82,7.22-2.94,1.19-6.1,1.86-9.45,2.02,4.72,2.47,10.14,3.48,15.58,2.71,8.79-1.23,16.43-7.05,20.17-15.14-2.46-1.37-4.78-1.94-6.94-1.72h-.01Z"/>
  <path class="cls-1" d="M211.92,245.16c2.13-3.59,4.14-8.2,5.99-13.62.03-.11.07-.22.11-.33,4.25-12.56,7.62-29.4,9.49-48.08-2.71-10.29-6.32-20.38-10.74-30-2.46-5.36-5.23-10.65-8.2-15.76-26.43-11.31-50.56-13.37-64.57-13.37-25.81,0-47.76,6.19-64.61,13.43-2.96,5.09-5.71,10.36-8.16,15.7-4.32,9.4-7.86,19.25-10.55,29.3,1.86,18.96,5.26,36.07,9.56,48.79.04.1.08.21.11.32,1.85,5.42,3.86,10.03,6,13.62,9.46,15.95,36.24,41.24,67.79,41.24s58.32-25.3,67.78-41.24h0ZM171.92,142.4c.52-.09,12.78-2.16,21.82,4.28,1.8,1.28,2.22,3.78.94,5.58-.78,1.1-2.01,1.68-3.26,1.68-.8,0-1.61-.24-2.32-.74-6.28-4.47-15.7-2.93-15.8-2.92-2.17.37-4.24-1.09-4.62-3.26-.38-2.17,1.07-4.24,3.24-4.62ZM186.87,182.4c0,3.98-3.19,7.2-7.12,7.2s-7.12-3.22-7.12-7.2,3.19-7.2,7.12-7.2,7.12,3.22,7.12,7.2ZM94.53,146.68c9.04-6.44,21.28-4.37,21.8-4.28,2.18.38,3.63,2.46,3.25,4.63s-2.46,3.62-4.62,3.25c-.1-.02-9.51-1.55-15.78,2.92-.7.5-1.51.74-2.32.74-1.25,0-2.48-.58-3.26-1.68-1.28-1.8-.86-4.3.94-5.58h-.01ZM115.64,182.4c0,3.98-3.19,7.2-7.12,7.2s-7.12-3.22-7.12-7.2,3.19-7.2,7.12-7.2,7.12,3.22,7.12,7.2ZM172.67,231.76c-1.56,0-3.12-.11-4.69-.33-9.88-1.38-18.62-7.19-23.98-15.49-5.36,8.3-14.1,14.11-23.98,15.49-1.57.22-3.14.33-4.69.33-10.88,0-21.2-5.25-27.73-14.36-1-1.39-1-3.26,0-4.66,1-1.4,2.77-2,4.41-1.5,6.87,2.07,12.85,2.11,17.79.12,3.53-1.43,5.97-3.56,8.55-5.82,3.51-3.07,7.13-6.24,12.98-6.85,4.17-.43,8.42.69,12.68,3.3,4.26-2.61,8.51-3.73,12.68-3.3,5.85.6,9.47,3.78,12.98,6.85,2.58,2.26,5.02,4.4,8.55,5.82,4.93,1.99,10.92,1.95,17.79-.12,1.64-.49,3.41.11,4.41,1.5s.99,3.27,0,4.66c-6.53,9.1-16.86,14.36-27.74,14.36h-.01Z"/>
  <path class="cls-1" d="M183.4,327.29c-1.47-.59-2.51-2.02-2.51-3.71v-13.58h-34.58l-6.13,10.62h0l-20.8,36.05v131.33h159.09c-13.46-99.4-58.91-142.25-95.07-160.71h0ZM139.91,434c-6.71,0-12.18-5.5-12.18-12.27s5.46-12.27,12.18-12.27,12.18,5.5,12.18,12.27-5.46,12.27-12.18,12.27ZM152.18,351.33c-6.71,0-12.18-5.5-12.18-12.27s5.46-12.27,12.18-12.27,12.18,5.5,12.18,12.27-5.46,12.27-12.18,12.27Z"/>
  <path class="cls-1" d="M241.79,214.08c3.79-10.41.73-21.5-6.78-25.84-1.72,15.15-4.36,28.83-7.68,40.1,6.12-1.51,11.77-6.87,14.45-14.25h0Z"/>
  <ellipse class="cls-1" cx="139.91" cy="421.73" rx="4.18" ry="4.27"/>
  <path class="cls-1" d="M125.6,310h-18.49v13.69c0,.08-.02.15-.02.22,0,.14-.02.29-.04.43-.02.13-.05.25-.08.37-.03.13-.07.25-.11.37-.05.12-.1.24-.15.36-.06.12-.12.23-.18.34-.07.11-.14.21-.21.31-.08.11-.16.21-.25.31-.09.09-.18.18-.27.27-.1.08-.19.17-.3.24-.11.08-.24.16-.36.23-.07.04-.12.09-.19.12-36.12,18.41-81.65,61.25-95.13,160.75h101.58v-132.4c0-.7.18-1.39.54-2l20.08-34.8-6.39-8.8h-.03Z"/>
  <ellipse class="cls-1" cx="152.18" cy="339.07" rx="4.18" ry="4.27"/>
</svg>