<?xml version="1.0" encoding="UTF-8"?>
<svg id="_レイヤー_4" data-name="レイヤー 4" xmlns="http://www.w3.org/2000/svg" viewBox="0 0 382.45 490.83">
  <defs>
    <style>
      .cls-1 {
        fill: #7a8d72;
      }
    </style>
  </defs>
  <path class="cls-1" d="M103.89,338.42c-4.18,0-7.59-3.42-7.59-7.59V125.84h121.48v129.6c2.35,2.43,4.94,5.24,7.59,8.05V110.65c0-8.35-6.83-15.18-15.18-15.18h-106.29c-8.35,0-15.18,6.83-15.18,15.18v220.18c0,8.35,6.83,15.18,15.18,15.18h98.02c-1.29-2.35-2.35-4.86-3.26-7.59h-94.75ZM96.3,110.65c0-4.18,3.42-7.59,7.59-7.59h106.29c4.18,0,7.59,3.42,7.59,7.59v7.59h-121.48v-7.59ZM152.09,323.24h22.78c2.1,0,3.8,1.7,3.8,3.8s-1.7,3.8-3.8,3.8h-22.78c-2.1,0-3.8-1.7-3.8-3.8s1.7-3.8,3.8-3.8ZM183.61,228.33c0-2.13-1.67-3.8-3.8-3.8,0-12.6-10.17-22.78-22.78-22.78s-22.78,10.17-22.78,22.78c-2.13,0-3.8,1.67-3.8,3.8s1.67,3.8,3.8,3.8h45.55c2.13,0,3.8-1.67,3.8-3.8ZM141.86,224.54c0-8.35,6.83-15.18,15.18-15.18s15.18,6.83,15.18,15.18h-30.37ZM157.04,201.76c-2.1,0-3.8-1.7-3.8-3.8s1.7-3.8,3.8-3.8,3.8,1.7,3.8,3.8-1.7,3.8-3.8,3.8ZM126.67,144.82c0-2.1,1.7-3.8,3.8-3.8h53.15c2.1,0,3.8,1.7,3.8,3.8s-1.7,3.8-3.8,3.8h-53.15c-2.1,0-3.8-1.7-3.8-3.8ZM157.04,300.46c-4.19,0-7.59-3.4-7.59-7.59s3.4-7.59,7.59-7.59,7.59,3.4,7.59,7.59-3.4,7.59-7.59,7.59ZM126.67,285.28c4.19,0,7.59,3.4,7.59,7.59s-3.4,7.59-7.59,7.59-7.59-3.4-7.59-7.59,3.4-7.59,7.59-7.59ZM188.4,244.43c0-.08.08-.08.15-.08,6.38-7.36,10.25-16.93,10.25-27.41,0-23.01-18.75-41.76-41.76-41.76s-41.76,18.75-41.76,41.76,18.75,41.76,41.76,41.76c8.5,0,16.32-2.51,22.93-6.91,3.11-2.05,6-4.56,8.43-7.36ZM122.88,216.94c0-18.83,15.34-34.17,34.17-34.17s34.17,15.34,34.17,34.17-15.34,34.17-34.17,34.17-34.17-15.34-34.17-34.17ZM298.71,276.47l-28.62-42.97c-5.31-7.97-14.27-12.76-23.84-12.76h-9.49c-2.13,0-3.8,1.67-3.8,3.8v58.54c-2.2-2.43-4.86-5.31-7.59-8.28-2.43-2.73-5.09-5.54-7.59-8.28-4.02-4.33-7.82-8.35-10.33-10.93-5.92-6.07-12.68-7.14-18.07-2.89-8.66,6.76-11.09,26.73-1.37,42.21,2.73,4.33,5.69,7.52,8.35,10.4,4.1,4.4,6.23,6.83,6.23,10.33,0,9.03,1.59,16.48,4.18,22.78,1.06,2.73,2.35,5.31,3.8,7.59,4.02,6.91,9.03,12.07,13.29,16.55,5.09,5.31,9.11,9.49,9.11,13.82v15.18c0,2.13,1.67,3.8,3.8,3.8h68.33c2.13,0,3.8-1.67,3.8-3.8v-81.54c0-12-3.49-23.61-10.17-33.56ZM301.3,387.77h-60.74v-11.39c0-7.44-5.16-12.83-11.24-19.06-3.72-3.87-7.82-8.12-11.24-13.51-1.37-2.05-2.58-4.25-3.64-6.68-2.58-5.85-4.25-12.83-4.25-21.49,0-6.68-4.02-10.93-8.28-15.56-2.51-2.66-5.16-5.47-7.52-9.26-7.74-12.38-5.54-28.02-.3-32.19.76-.61,3.19-2.58,7.97,2.28,3.64,3.64,9.79,10.25,15.72,16.7,2.66,2.96,5.24,5.77,7.59,8.35,4.94,5.39,8.5,9.34,8.58,9.49,1.06,1.14,2.73,1.52,4.18.99,1.44-.61,2.43-1.97,2.43-3.57v-64.54h5.69c7.06,0,13.59,3.49,17.46,9.34l28.7,42.97c5.77,8.73,8.88,18.9,8.88,29.38v77.75Z"/>
</svg>