<?xml version="1.0" encoding="UTF-8"?>
<svg id="Layer_1" data-name="Layer 1" xmlns="http://www.w3.org/2000/svg" viewBox="0 0 237.87 450">
  <defs>
    <style>
      .cls-1 {
        fill: #7a8d72;
      }
    </style>
  </defs>
  <path class="cls-1" d="M39.31,389.96c-21.68,0-39.31-17.7-39.31-39.46V39.46C0,17.7,17.63,0,39.31,0h159.24c21.68,0,39.31,17.7,39.31,39.46v311.05c0,6.18-1.61,12.58-4.67,18.53-1.15,2.21-3.9,3.1-6.09,1.95-2.22-1.14-3.1-3.86-1.96-6.08,2.41-4.68,3.68-9.66,3.68-14.4V39.46c0-16.77-13.58-30.42-30.28-30.42H39.31c-16.7,0-30.28,13.65-30.28,30.42v311.05c0,16.77,13.58,30.42,30.28,30.42,2.49,0,4.52,2.02,4.52,4.52s-2.02,4.52-4.52,4.52ZM76.69,341.77h-42.95c-11.38,0-20.62-9.32-20.62-20.78V68.97c0-11.46,9.25-20.78,20.62-20.78h170.38c11.38,0,20.62,9.32,20.62,20.78v252.02c0,2.49-2.02,4.52-4.52,4.52s-4.52-2.02-4.52-4.52V68.97c0-6.48-5.2-11.75-11.59-11.75H33.74c-6.39,0-11.59,5.27-11.59,11.75v252.02c0,6.48,5.2,11.75,11.59,11.75h42.95c2.49,0,4.52,2.02,4.52,4.52s-2.02,4.52-4.52,4.52Z"/>
  <path class="cls-1" d="M130.17,303.61c-1.05,0-2.09-.37-2.9-1.05-1.02-.86-1.61-2.13-1.61-3.46v-35.14c0-1.75-.32-3.56-.88-4.97-.7-1.77-.21-3.8,1.23-5.06l51.69-45.38c1.13-.99,2.7-1.33,4.13-.97,1.45.38,2.62,1.46,3.12,2.88,2.54,7.27,3.83,15.21,3.83,23.58,0,34.39-24.31,63.62-57.81,69.51-.26.04-.53.06-.78.06ZM134.13,258.82c.37,1.66.56,3.41.56,5.14v29.51c26.4-7.11,45.04-31.29,45.04-59.43,0-4.86-.49-9.54-1.46-13.97l-44.14,38.75ZM93.38,299.4c-.6,0-1.2-.12-1.77-.36-25.83-11.05-42.5-36.57-42.5-65,0-38.92,31.36-70.58,69.92-70.58,20.53,0,39.84,9,52.97,24.71,1.58,1.88,1.37,4.67-.48,6.29l-53.48,46.99c-1.76,1.56-4.46,1.5-6.16-.18l-18.84-18.69-10.18,10.41,17.3,17.12c1.58,1.57,1.78,4.06.47,5.87-1.81,2.48-2.72,5.17-2.72,7.99v30.92c0,1.52-.76,2.94-2.03,3.77-.74.49-1.61.75-2.48.75ZM119.03,172.48c-33.57,0-60.89,27.61-60.89,61.55,0,22.41,11.86,42.74,30.73,53.55v-23.63c0-3.43.82-6.81,2.39-9.94l-17.96-17.77c-1.76-1.75-1.78-4.59-.04-6.37l16.5-16.87c.85-.87,2.48-1.24,3.23-1.36,1.19,0,2.33.47,3.18,1.31l19.06,18.92,46.88-41.19c-11.26-11.62-26.72-18.2-43.09-18.2Z"/>
  <path class="cls-1" d="M128.97,261.84c-.35,0-.71-.04-1.05-.12-1.43-.34-2.6-1.36-3.15-2.73-2.16-5.46-7.23-8.99-12.89-8.99-4.49,0-8.58,2.16-11.22,5.9-.76,1.09-1.97,1.79-3.29,1.91-1.45.1-2.64-.35-3.59-1.29l-20.48-20.28c-1.76-1.75-1.78-4.59-.04-6.37l16.5-16.87c.85-.87,2.48-1.24,3.23-1.36,1.19,0,2.33.47,3.18,1.31l19.06,18.92,65.44-57.46c.9-.81,2.06-1.26,3.3-1.11,1.2.09,2.32.65,3.11,1.57l15.3,17.88c1.61,1.88,1.41,4.69-.44,6.33l-69.98,61.64c-.84.73-1.9,1.12-2.99,1.12ZM117.68,241.72c4.99,1.32,9.39,4.33,12.49,8.53l62.44-55.01-9.42-11.02-65.17,57.22c-.11.1-.23.19-.34.27ZM82.85,232.98l13.91,13.77c4.04-3.66,9.23-5.71,14.82-5.78l-18.55-18.39-10.18,10.41Z"/>
  <path class="cls-1" d="M161.58,105.61h-85.29c-7.98,0-14.46-6.53-14.46-14.55s6.48-14.35,14.46-14.35h85.29c7.98,0,14.46,6.44,14.46,14.35s-6.48,14.55-14.46,14.55ZM76.29,85.74c-2.95,0-5.43,2.44-5.43,5.32,0,3.04,2.44,5.52,5.43,5.52h85.29c2.99,0,5.43-2.48,5.43-5.52,0-2.88-2.48-5.32-5.43-5.32h-85.29Z"/>
  <path class="cls-1" d="M161.58,139.75h-85.29c-7.98,0-14.46-6.44-14.46-14.35s6.48-14.56,14.46-14.56h85.29c7.98,0,14.46,6.53,14.46,14.56s-6.48,14.35-14.46,14.35ZM76.29,119.87c-2.99,0-5.43,2.48-5.43,5.53,0,2.88,2.48,5.32,5.43,5.32h85.29c2.95,0,5.43-2.44,5.43-5.32,0-3.05-2.44-5.53-5.43-5.53h-85.29Z"/>
  <path class="cls-1" d="M185.83,450h-60.44c-9.07,0-17.72-3.43-24.37-9.66l-77.3-70.85c-1.59-1.47-1.92-3.85-.79-5.7.28-.46,7.05-11.22,21.61-13.02,13.26-1.66,28.11,4.55,44.32,18.39v-105.21c0-12.68,10.32-22.99,23.01-22.99s22.81,10.31,22.81,22.99v57.25c9.78-2.92,21.09,1.72,26.21,10.56,10.6-4.77,23.55-.3,29.18,9.3,2.97-1.39,6.16-2.11,9.47-2.11,12.58,0,22.81,10.4,22.81,23.19v51.01c0,20.32-16.39,36.84-36.53,36.84ZM33.01,365.74l74.16,67.97c5,4.69,11.46,7.25,18.22,7.25h60.44c15.16,0,27.49-12.48,27.49-27.81v-51.01c0-7.81-6.18-14.16-13.77-14.16-3.13,0-6.13,1.11-8.68,3.19-1.17.97-2.74,1.29-4.23.81-1.45-.46-2.58-1.62-2.99-3.09-1.67-5.98-7.15-10.15-13.33-10.15-3.89,0-6.95,1.69-8.81,3.1-1.2.9-2.79,1.15-4.16.68-1.42-.47-2.5-1.61-2.91-3.04-2.5-8.76-13.24-13.21-21.7-7.37-1.4.96-3.2,1.06-4.68.3-1.48-.78-2.42-2.32-2.42-4.01v-64.46c0-7.69-6.18-13.96-13.77-13.96s-13.98,6.39-13.98,13.96v115.46c0,1.82-1.09,3.46-2.76,4.16-1.66.73-3.61.34-4.9-.93-16.82-16.4-32.01-24.32-44.4-22.93-6.23.73-10.44,3.71-12.83,6.02Z"/>
</svg>