<?xml version="1.0" encoding="UTF-8"?>
<svg id="icons" xmlns="http://www.w3.org/2000/svg" viewBox="0 0 198.9 328.1">
  <defs>
    <style>
      .cls-1 {
        fill: #7a8d72;
      }
    </style>
  </defs>
  <path class="cls-1" d="M76.4,152.6c42.1,0,76.3-34.2,76.3-76.3S118.5,0,76.4,0,0,34.2,0,76.3s34.3,76.3,76.4,76.3ZM76.4,8c37.7,0,68.3,30.7,68.3,68.3s-30.7,68.3-68.3,68.3S8,114,8,76.3,38.7,8,76.4,8Z"/>
  <path class="cls-1" d="M76.4,172.1c19.9,0,38.2,10.9,47.6,28.5,1,1.9,3.5,2.7,5.4,1.6,1.9-1,2.7-3.5,1.6-5.4-10.9-20.1-31.8-32.7-54.7-32.7-32.4,0-59.6,25.3-61.9,57.7l-7.3,102c-.1,1.1.3,2.2,1.1,3,.8.8,1.8,1.3,2.9,1.3h79.3c2.2,0,4-1.8,4-4s-1.8-4-4-4H15.4l7-97.7c2-28.2,25.7-50.3,54-50.3Z"/>
  <path class="cls-1" d="M63.8,124.8c4.1,1,8.3,1.5,12.6,1.5s8.5-.5,12.6-1.5c20.7-5,30-19.4,34.1-30.6,1.6-4.3,1-9-1.6-12.8-2.5-3.6-6.3-5.6-10.5-5.6H42c-4.2,0-8.1,2-10.5,5.6-2.6,3.7-3.2,8.5-1.6,12.8,3.9,11.2,13.1,25.6,33.9,30.6ZM37.9,86c1-1.4,2.4-2.2,4-2.2h69c1.6,0,3,.8,4,2.2,1.1,1.6,1.4,3.6.7,5.4-3.4,9.4-11.2,21.4-28.5,25.5-7,1.7-14.4,1.7-21.4,0-17.3-4.2-25-16.2-28.5-25.5-.7-1.8-.4-3.8.7-5.4Z"/>
  <path class="cls-1" d="M84.3,270.7c0,31.6,25.7,57.3,57.3,57.3s57.3-25.7,57.3-57.3-25.7-57.3-57.3-57.3c-31.6-.1-57.3,25.6-57.3,57.3ZM191,270.7c0,27.2-22.1,49.3-49.3,49.3s-49.3-22.1-49.3-49.3,22.1-49.3,49.3-49.3,49.3,22.1,49.3,49.3Z"/>
  <path class="cls-1" d="M137.6,258.9v7.7h-7.7c-2.2,0-4,1.8-4,4s1.8,4,4,4h7.7v7.7c0,2.2,1.8,4,4,4s4-1.8,4-4v-7.7h7.7c2.2,0,4-1.8,4-4s-1.8-4-4-4h-7.7v-7.7c0-2.2-1.8-4-4-4s-4,1.8-4,4Z"/>
  <path class="cls-1" d="M54.3,56.5c2.2,0,4-1.8,4-4v-3c0-2.2-1.8-4-4-4s-4,1.8-4,4v3c0,2.2,1.8,4,4,4Z"/>
  <path class="cls-1" d="M98.4,56.5c2.2,0,4-1.8,4-4v-3c0-2.2-1.8-4-4-4s-4,1.8-4,4v3c0,2.2,1.8,4,4,4Z"/>
</svg>