<?xml version="1.0" encoding="UTF-8"?>
<svg id="_レイヤー_2" data-name="レイヤー 2" xmlns="http://www.w3.org/2000/svg" viewBox="0 0 490.83 490.83">
  <defs>
    <style>
      .cls-1 {
        fill: #7a8d72;
      }
    </style>
  </defs>
  <path class="cls-1" d="M253.28,121.17c-50.32,0-91.11,40.79-91.11,91.11s40.79,91.11,91.11,91.11,91.11-40.79,91.11-91.11-40.79-91.11-91.11-91.11ZM253.28,295.8c-46.05,0-83.52-37.47-83.52-83.52s37.47-83.52,83.52-83.52,83.52,37.47,83.52,83.52-37.47,83.52-83.52,83.52ZM253.28,143.95c-37.68,0-68.33,30.65-68.33,68.33s30.65,68.33,68.33,68.33,68.33-30.65,68.33-68.33-30.65-68.33-68.33-68.33ZM253.28,273.02c-33.49,0-60.74-27.25-60.74-60.74s27.25-60.74,60.74-60.74,60.74,27.25,60.74,60.74-27.25,60.74-60.74,60.74ZM134.25,121.03v68.19h-2.66l-4.42-68.19h-2.24l-2.41,68.19h-1.91l-2.49-68.19h-1.68l-4.42,68.19h-2.66v-68.19h-2.04l-5.73,72.47c-.7,5.09.78,11.84,6.74,14.45,0,0,7.56,4.36,7.31,9.92l-6.29,141.14c-.31,6.93,5.23,12.72,12.16,12.72s12.46-5.77,12.16-12.69l-5.94-141.26c-.25-5.56,7.37-9.8,7.37-9.8,4.64-2.78,7.19-9.23,6.38-14.56l-5.2-72.38h-2.04ZM124.82,362.72c-.87.91-2.05,1.41-3.31,1.41s-2.44-.5-3.31-1.42c-.87-.91-1.32-2.11-1.27-3.37l4.71-105.71,4.44,105.72c.05,1.26-.4,2.45-1.27,3.36ZM131.41,201.34c-1.43.8-7,4.17-9.74,9.72-2.72-5.49-8.15-8.89-9.55-9.69l-.36-.21-.38-.17c-1.55-.68-2.15-2.5-2.31-4.18h24.85c-.35,1.93-1.37,3.84-2.51,4.53ZM386.16,119.11c-.79,0-1.6.25-2.31.81-9,7.09-14.63,17.61-15.52,29.03l-5.95,69.2c-.49,6.2,2.33,12.21,7.42,15.79,5.21,3.67,8.03,9.88,7.38,16.22l-10.55,108.66c-.71,6.9,4.7,12.9,11.63,12.9,6.46,0,11.69-5.24,11.69-11.69V122.88c0-2.24-1.83-3.77-3.78-3.77ZM382.35,360.03c0,2.26-1.84,4.1-4.1,4.1-1.59,0-2.59-.85-3.05-1.35-.46-.51-1.2-1.59-1.03-3.21l8.18-84.2v84.66ZM382.35,237.4c-1.83-3.8-4.62-7.15-8.18-9.67-2.88-2.03-4.5-5.48-4.23-8.93l5.96-69.26c.49-6.28,2.77-12.26,6.45-17.26v105.11Z"/>
</svg>